<?xml version="1.0" encoding="utf-8"?>
<!-- Generator: Adobe Illustrator 16.0.0, SVG Export Plug-In . SVG Version: 6.00 Build 0)  -->
<!DOCTYPE svg PUBLIC "-//W3C//DTD SVG 1.1//EN" "http://www.w3.org/Graphics/SVG/1.1/DTD/svg11.dtd">
<svg version="1.1" id="f1b25b43-9e03-45b3-af71-047f5bd7d8f3"
	 xmlns="http://www.w3.org/2000/svg" xmlns:xlink="http://www.w3.org/1999/xlink" x="0px" y="0px" width="1573.704px"
	 height="740.829px" viewBox="0 0 1573.704 740.829" enable-background="new 0 0 1573.704 740.829" xml:space="preserve">
<path fill="#990066" d="M1512.852,517.954c0,22.09-17.908,40-40,40h-1372c-22.092,0-40-17.91-40-40V222.833
	c0-22.091,17.908-40,40-40h1372c22.092,0,40,17.909,40,40V517.954z"/>
<g>
	<path fill="#B2B2B2" d="M1365.77,314.128l-1.106-3.271c-1.697-5.016-7.139-7.706-12.152-6.009l-129.197,43.686
		c-5.018,1.696-7.709,7.136-6.016,12.153l2.04,6.031L1365.77,314.128z"/>
	<path opacity="0.1" enable-background="new    " d="M1370.345,316.16l30.727,90.874c1.469,4.342-0.863,9.047-5.201,10.514
		c-0.003,0.001-0.003,0.001-0.003,0.001l-135.128,45.69c-4.34,1.468-9.045-0.857-10.513-5.198l-33.825-100.036
		c4.359,0.126,4.359,0.126,8.302-1.341l135.128-45.69C1364.164,309.508,1368.868,311.829,1370.345,316.16z"/>
	<path fill="#FFFFFF" d="M1370.736,317.316l30.728,90.875c1.465,4.339-0.864,9.048-5.204,10.516l-135.128,45.691
		c-4.341,1.463-9.046-0.863-10.513-5.202l-33.826-100.04c4.358,0.127,4.358,0.127,8.301-1.338l135.128-45.691
		C1364.554,310.662,1369.26,312.983,1370.736,317.316z"/>
	<path opacity="0.1" enable-background="new    " d="M1381.71,351.043l9.826,29.062l-28.186,9.529
		c-8.061,2.605-16.709-1.815-19.314-9.879c-2.557-7.905,1.652-16.414,9.488-19.181L1381.71,351.043z"/>
	<path fill="#B2B2B2" d="M1381.833,350.139l9.829,29.067l-28.187,9.531c-8.061,2.604-16.709-1.818-19.314-9.879
		c-2.557-7.906,1.65-16.414,9.488-19.185L1381.833,350.139z"/>
	<path opacity="0.1" enable-background="new    " d="M1358.259,368.854c3.13-1.059,6.523,0.622,7.58,3.747
		c1.059,3.131-0.619,6.524-3.749,7.584c-3.128,1.058-6.524-0.621-7.583-3.752C1353.452,373.308,1355.13,369.912,1358.259,368.854z"
		/>
	<path fill="#FFFFFF" d="M1358.384,367.955c3.127-1.058,6.523,0.622,7.58,3.747c1.059,3.13-0.62,6.528-3.748,7.587
		c-3.131,1.059-6.525-0.625-7.584-3.755C1353.576,372.407,1355.253,369.012,1358.384,367.955z"/>
</g>
</svg>
